<?xml version="1.0" encoding="utf-8"?>
<!-- Generator: Adobe Illustrator 17.0.1, SVG Export Plug-In . SVG Version: 6.00 Build 0)  -->
<!DOCTYPE svg PUBLIC "-//W3C//DTD SVG 1.0//EN" "http://www.w3.org/TR/2001/REC-SVG-20010904/DTD/svg10.dtd">
<svg version="1.0" id="Livello_1" xmlns="http://www.w3.org/2000/svg" xmlns:xlink="http://www.w3.org/1999/xlink" x="0px" y="0px"
	 width="128px" height="128px" viewBox="0 0 128 128" enable-background="new 0 0 128 128" xml:space="preserve">
<g>
	<defs>
		<path id="SVGID_6_" d="M-15.657,15.036C-15.657-0.831-3.253-13,12.61-13h103.422c15.87,0,28.311,12.175,28.311,28.036v96.236
			c0,15.867-12.441,29.728-28.311,29.728H12.61c-15.863,0-28.267-13.861-28.267-29.728L-15.657,15.036z"/>
	</defs>
	
		<linearGradient id="SVGID_1_" gradientUnits="userSpaceOnUse" x1="64.3467" y1="140.9994" x2="64.3467" y2="-13.0006" gradientTransform="matrix(-1 0 0 -1 128.6896 127.9994)">
		<stop  offset="0" style="stop-color:#27AAE1"/>
		<stop  offset="0.1629" style="stop-color:#279FD9"/>
		<stop  offset="0.4499" style="stop-color:#2881C4"/>
		<stop  offset="0.8249" style="stop-color:#2A52A2"/>
		<stop  offset="1" style="stop-color:#2B3990"/>
	</linearGradient>
	<use xlink:href="#SVGID_6_"  overflow="visible" fill="url(#SVGID_1_)"/>
	<clipPath id="SVGID_2_">
		<use xlink:href="#SVGID_6_"  overflow="visible"/>
	</clipPath>
</g>
<rect x="24.442" y="41.265" transform="matrix(0.9834 0.1816 -0.1816 0.9834 12.6415 -10.25)" fill="none" stroke="#FFFFFF" stroke-width="2" stroke-miterlimit="10" width="75.715" height="45.299"/>
<rect x="24.154" y="40.13" transform="matrix(0.9973 -0.0728 0.0728 0.9973 -4.428 4.7724)" fill="#FFFFFF" width="78.207" height="46.004"/>
<rect x="66.527" y="47.937" transform="matrix(0.9973 -0.0728 0.0728 0.9973 -3.4971 5.9233)" fill="#2977BC" width="25.97" height="6"/>
<rect x="67.255" y="57.911" transform="matrix(0.9973 -0.0728 0.0728 0.9973 -4.2212 6.0027)" fill="#2977BC" width="25.97" height="6"/>
<rect x="67.983" y="67.884" transform="matrix(0.9973 -0.0728 0.0728 0.9973 -4.9453 6.0822)" fill="#2977BC" width="25.97" height="6"/>
<path fill="#2972B9" d="M54.108,77.911l-16.893,1.232c-3.073,0.225-5.297-1.498-5.526-4.63c-0.318-4.367,0.216-11.147,5.879-11.561
	c0.599-0.043,3.327,2.457,7.115,2.18c3.788-0.276,6.124-3.146,6.723-3.19c5.663-0.414,7.178,6.217,7.496,10.584
	C59.131,75.659,57.181,77.687,54.108,77.911z"/>
<circle fill="#2972B9" cx="44.035" cy="56.263" r="7.441"/>
</svg>
