<?xml version="1.0" encoding="utf-8"?>
<!-- Generator: Adobe Illustrator 17.0.1, SVG Export Plug-In . SVG Version: 6.00 Build 0)  -->
<!DOCTYPE svg PUBLIC "-//W3C//DTD SVG 1.1//EN" "http://www.w3.org/Graphics/SVG/1.1/DTD/svg11.dtd">
<svg version="1.1" id="Livello_1" xmlns="http://www.w3.org/2000/svg" xmlns:xlink="http://www.w3.org/1999/xlink" x="0px" y="0px"
	 width="128px" height="128px" viewBox="0 0 128 128" enable-background="new 0 0 128 128" xml:space="preserve">
<linearGradient id="SVGID_1_" gradientUnits="userSpaceOnUse" x1="66.4366" y1="-10" x2="66.4366" y2="138" gradientTransform="matrix(-1 0 0 -1 132.8731 128)">
	<stop  offset="0" style="stop-color:#662D91"/>
	<stop  offset="0.2394" style="stop-color:#872C8C"/>
	<stop  offset="1" style="stop-color:#EE2A7B"/>
</linearGradient>
<path fill="url(#SVGID_1_)" d="M-10.564,16.921C-10.564,1.664,1.852-10,17.105-10h99.443c15.26,0,26.888,11.669,26.888,26.92v92.533
	c0,15.256-11.628,28.547-26.888,28.547H17.105c-15.254,0-27.669-13.29-27.669-28.547V16.921z"/>
<g>
	<defs>
		<path id="SVGID_9_" d="M164.436,15.036C164.436-0.831,176.84-13,192.704-13h103.422c15.87,0,28.311,12.175,28.311,28.036v96.236
			c0,15.867-12.441,29.728-28.311,29.728H192.703c-15.863,0-28.267-13.861-28.267-29.728V15.036z"/>
	</defs>
	
		<linearGradient id="SVGID_2_" gradientUnits="userSpaceOnUse" x1="244.4367" y1="141.0005" x2="244.4367" y2="-12.9995" gradientTransform="matrix(-1 0 0 -1 488.8732 128.0005)">
		<stop  offset="0" style="stop-color:#27AAE1"/>
		<stop  offset="0.1629" style="stop-color:#279FD9"/>
		<stop  offset="0.4499" style="stop-color:#2881C4"/>
		<stop  offset="0.8249" style="stop-color:#2A52A2"/>
		<stop  offset="1" style="stop-color:#2B3990"/>
	</linearGradient>
	<use xlink:href="#SVGID_9_"  overflow="visible" fill="url(#SVGID_2_)"/>
	<clipPath id="SVGID_3_">
		<use xlink:href="#SVGID_9_"  overflow="visible"/>
	</clipPath>
</g>
<path opacity="0.2" fill="#FFFFFF" d="M25.83,64.361c0-22.446,18.194-40.636,40.638-40.638c22.444,0.003,40.637,18.196,40.637,40.64
	c0,22.446-18.193,40.638-40.637,40.636C44.024,104.998,25.83,86.806,25.83,64.361z"/>
<circle opacity="0.2" fill="#FFFFFF" cx="66.801" cy="64.695" r="35.971"/>
<circle opacity="0.2" fill="none" stroke="#FFFFFF" stroke-miterlimit="10" cx="66.301" cy="64.195" r="32.471"/>
<g>
	<polygon fill="#FFFFFF" points="62.751,64.244 95.437,25.359 69.408,69.311 	"/>
	
		<ellipse transform="matrix(-0.8954 0.4452 -0.4452 -0.8954 154.8789 97.3035)" fill="#FFFFFF" cx="66.013" cy="66.839" rx="4.069" ry="4.185"/>
</g>
<line opacity="0.2" fill="none" stroke="#FFFFFF" stroke-miterlimit="10" x1="90.437" y1="51" x2="94.437" y2="48"/>
<line opacity="0.2" fill="none" stroke="#FFFFFF" stroke-miterlimit="10" x1="70.12" y1="37.787" x2="70.861" y2="32.842"/>
<line opacity="0.2" fill="none" stroke="#FFFFFF" stroke-miterlimit="10" x1="48.874" y1="43.941" x2="45.409" y2="40.336"/>
</svg>
